<?xml version="1.0" encoding="utf-8"?>
<!-- Generator: Adobe Illustrator 15.0.0, SVG Export Plug-In . SVG Version: 6.00 Build 0)  -->
<!DOCTYPE svg PUBLIC "-//W3C//DTD SVG 1.1//EN" "http://www.w3.org/Graphics/SVG/1.1/DTD/svg11.dtd">
<svg version="1.1" id="图层_1" xmlns="http://www.w3.org/2000/svg" xmlns:xlink="http://www.w3.org/1999/xlink" x="0px" y="0px"
	 width="237px" height="73px" viewBox="0 0 237 73" enable-background="new 0 0 237 73" xml:space="preserve">
<path fill="#E1534F" d="M73.184,62.902c0,5.561-4.509,10.069-10.069,10.069H10.253c-5.561,0-10.069-4.509-10.069-10.069V10.041
	c0-5.561,4.509-10.069,10.069-10.069h52.861c5.561,0,10.069,4.509,10.069,10.069V62.902z"/>
<text transform="matrix(1 0 0 1 83.8354 51.1758)" fill="#FFFFFF" font-family="'Hero'" font-size="38.2304">datasee</text>
<g>
	<path fill="#FFFFFF" d="M35.014,43.81c0,2.04-0.72,3.777-2.154,5.214c-1.437,1.435-3.174,2.152-5.214,2.152h-8.781
		c-2.041,0-3.779-0.718-5.215-2.152c-1.435-1.437-2.151-3.174-2.151-5.214v-6.744c0-2.04,0.717-3.777,2.151-5.212
		c1.436-1.436,3.174-2.154,5.215-2.154h9.519c0,1.565-0.757,2.883-2.266,3.95c-1.512,1.069-3.362,1.64-5.553,1.718h-1.7
		c-1.135,0.037-1.701,0.604-1.701,1.698v6.744c0,1.134,0.566,1.7,1.701,1.7h8.781c1.134,0,1.702-0.566,1.702-1.7V29.587
		c0-2.154,0.55-3.994,1.657-5.524c1.106-1.53,2.441-2.296,4.009-2.296V43.81z"/>
	<path fill="#FFFFFF" d="M61.871,29.699c0,1.565-0.761,2.9-2.284,4.008c-1.523,1.106-3.354,1.66-5.496,1.66H38.357
		c0-1.566,0.759-2.901,2.282-4.007c1.523-1.107,3.356-1.661,5.5-1.661H61.871z M61.871,43.81c0,2.04-0.719,3.777-2.154,5.214
		c-1.435,1.435-3.172,2.152-5.212,2.152H38.357c0-1.564,0.765-2.899,2.294-4.006c1.529-1.107,3.372-1.66,5.524-1.66h8.329
		c1.133,0,1.7-0.566,1.7-1.7v-0.057c0-1.134-0.567-1.7-1.7-1.7h-8.271c-2.154,0-3.996-0.554-5.524-1.659
		c-1.531-1.106-2.296-2.441-2.296-4.007h16.092c2.04,0,3.777,0.718,5.212,2.152c1.436,1.437,2.154,3.174,2.154,5.214V43.81z"/>
</g>
</svg>
